<svg width="24" height="24" viewBox="0 0 24 24" fill="none" xmlns="http://www.w3.org/2000/svg">
<path d="M12 3.75C7.44375 3.75 3.75 7.44375 3.75 12C3.75 16.5562 7.44375 20.25 12 20.25C16.5562 20.25 20.25 16.5562 20.25 12C20.25 7.44375 16.5562 3.75 12 3.75ZM12 5.25C15.7279 5.25 18.75 8.27213 18.75 12C18.75 15.0895 16.672 17.6885 13.8391 18.49C13.8043 18.4183 13.7804 18.3397 13.7827 18.2505C13.7943 17.7971 13.7827 16.7391 13.7827 16.3506C13.7827 15.6838 13.3608 15.2109 13.3608 15.2109C13.3608 15.2109 16.6699 15.2483 16.6699 11.7173C16.6699 10.3549 15.958 9.64526 15.958 9.64526C15.958 9.64526 16.332 8.19085 15.8284 7.57397C15.264 7.51285 14.2532 8.11305 13.8215 8.39355C13.8215 8.39355 13.1377 8.11304 12 8.11304C10.8623 8.11304 10.1785 8.39355 10.1785 8.39355C9.74684 8.11306 8.73601 7.51322 8.17163 7.57397C7.66838 8.19085 8.04199 9.64526 8.04199 9.64526C8.04199 9.64526 7.33008 10.3542 7.33008 11.7166C7.33008 15.2476 10.6392 15.2109 10.6392 15.2109C10.6392 15.2109 10.2624 15.6399 10.2246 16.2546C10.0035 16.3326 9.70205 16.4246 9.41455 16.4246C8.7208 16.4246 8.19374 15.7507 8.00024 15.4387C7.80974 15.1308 7.41919 14.8726 7.05469 14.8726C6.81469 14.8726 6.69727 14.9931 6.69727 15.1304C6.69727 15.2676 7.0341 15.3632 7.2561 15.6174C7.7241 16.1537 7.71543 17.3599 9.38306 17.3599C9.58023 17.3599 9.93452 17.3145 10.2173 17.2756C10.2157 17.6542 10.2113 18.0173 10.2173 18.2498C10.2195 18.3393 10.1952 18.4181 10.1602 18.49C7.3276 17.6883 5.25 15.0893 5.25 12C5.25 8.27213 8.27213 5.25 12 5.25Z" fill="white"/>
</svg>
